<?xml version="1.0" standalone="no"?>
<!DOCTYPE svg PUBLIC "-//W3C//DTD SVG 20010904//EN"
 "http://www.w3.org/TR/2001/REC-SVG-20010904/DTD/svg10.dtd">
<svg version="1.0" xmlns="http://www.w3.org/2000/svg"
 width="137.000000pt" height="143.000000pt" viewBox="0 0 137.000000 143.000000"
 preserveAspectRatio="xMidYMid meet">
<metadata>
Created by potrace 1.10, written by Peter Selinger 2001-2011
</metadata>
<g transform="translate(0.000000,143.000000) scale(0.100000,-0.100000)"
fill="#0f4fe1" stroke="none">
<path d="M602 1082 l-152 -106 2 -185 3 -186 143 -73 142 -73 0 -139 c0 -76 4
-141 9 -144 5 -3 75 41 157 97 l149 103 0 190 0 189 -142 70 -141 70 -1 142
c-1 78 -4 144 -8 146 -5 3 -77 -43 -161 -101z m138 -267 l0 -326 -130 68 -130
68 0 170 0 171 128 87 c70 48 128 87 130 87 1 0 2 -146 2 -325z m290 -251 l0
-172 -92 -63 c-51 -34 -110 -76 -130 -92 l-38 -29 0 329 0 329 130 -65 130
-66 0 -171z"/>
</g>
</svg>
